<svg width="157" height="38" viewBox="0 0 157 38" fill="none" xmlns="http://www.w3.org/2000/svg">
    <path opacity="0.4" d="M23.6551 6.33325H12.0267C6.97575 6.33325 3.9646 9.33961 3.9646 14.3825V25.9785C3.9646 31.0352 6.97575 34.0416 12.0267 34.0416H23.6412C28.6922 34.0416 31.7032 31.0352 31.7032 25.9924V14.3825C31.7171 9.33961 28.706 6.33325 23.6551 6.33325Z" fill="#635BFF"/>
    <path opacity="0.4" d="M23.6551 6.33325H12.0267C6.97575 6.33325 3.9646 9.33961 3.9646 14.3825V25.9785C3.9646 31.0352 6.97575 34.0416 12.0267 34.0416H23.6412C28.6922 34.0416 31.7032 31.0352 31.7032 25.9924V14.3825C31.7171 9.33961 28.706 6.33325 23.6551 6.33325Z" fill="#635BFF"/>
    <path d="M15.8706 25.1476C15.5931 25.1476 15.3294 25.0366 15.1352 24.8427L11.2082 20.922C10.8058 20.5202 10.8058 19.8552 11.2082 19.4535C11.6106 19.0516 12.2767 19.0516 12.6791 19.4535L15.8706 22.6399L23.003 15.5188C23.4054 15.1171 24.0714 15.1171 24.4739 15.5188C24.8763 15.9207 24.8763 16.5857 24.4739 16.9874L16.6061 24.8427C16.4117 25.0366 16.1482 25.1476 15.8706 25.1476Z" fill="#635BFF"/>
    <path d="M149.611 29.2002C148.277 29.2002 147.128 28.9304 146.165 28.3906C145.207 27.8452 144.47 27.0749 143.951 26.0797C143.434 25.0789 143.174 23.8953 143.174 22.529C143.174 21.1965 143.434 20.0269 143.951 19.0205C144.47 18.0141 145.199 17.2297 146.14 16.6675C147.085 16.1052 148.195 15.824 149.468 15.824C150.324 15.824 151.121 15.9617 151.858 16.2373C152.602 16.5071 153.249 16.9148 153.8 17.4602C154.358 18.0056 154.792 18.6915 155.102 19.518C155.412 20.339 155.567 21.3005 155.567 22.4025V23.3893H144.61V21.1627H152.179C152.179 20.6455 152.066 20.1872 151.842 19.788C151.616 19.3887 151.303 19.0767 150.903 18.8519C150.509 18.6212 150.05 18.5061 149.527 18.5061C148.98 18.5061 148.496 18.6325 148.074 18.8856C147.657 19.1329 147.33 19.4675 147.093 19.8891C146.857 20.3052 146.737 20.7691 146.731 21.2808V23.3977C146.731 24.0387 146.848 24.5925 147.085 25.0592C147.328 25.5258 147.668 25.8858 148.107 26.1387C148.547 26.3918 149.068 26.5182 149.67 26.5182C150.071 26.5182 150.436 26.4621 150.769 26.3496C151.101 26.2372 151.385 26.0684 151.622 25.8435C151.858 25.6186 152.038 25.3431 152.163 25.017L155.491 25.2363C155.322 26.0347 154.976 26.7319 154.451 27.3279C153.934 27.9183 153.263 28.3794 152.441 28.7111C151.624 29.0372 150.681 29.2002 149.611 29.2002Z" fill="#635BFF"/>
    <path d="M141.493 15.9926V18.6914H133.68V15.9926H141.493ZM135.453 12.8889H139.052V24.9663C139.052 25.2981 139.102 25.5567 139.204 25.7422C139.305 25.9221 139.446 26.0487 139.627 26.1217C139.812 26.1949 140.026 26.2314 140.269 26.2314C140.438 26.2314 140.607 26.2173 140.775 26.1892C140.944 26.1554 141.074 26.1301 141.163 26.1133L141.729 28.7868C141.55 28.8431 141.296 28.9077 140.969 28.9808C140.642 29.0596 140.246 29.1073 139.779 29.1242C138.912 29.1579 138.15 29.0427 137.498 28.7784C136.85 28.5142 136.346 28.1038 135.986 27.5471C135.625 26.9905 135.448 26.2876 135.453 25.4385V12.8889Z" fill="#635BFF"/>
    <path d="M132.248 15.9926V18.6914H124.433V15.9926H132.248ZM126.208 12.8889H129.806V24.9663C129.806 25.2981 129.857 25.5567 129.958 25.7422C130.06 25.9221 130.201 26.0487 130.38 26.1217C130.567 26.1949 130.781 26.2314 131.022 26.2314C131.191 26.2314 131.36 26.2173 131.529 26.1892C131.698 26.1554 131.828 26.1301 131.918 26.1133L132.484 28.7868C132.303 28.8431 132.05 28.9077 131.724 28.9808C131.397 29.0596 131 29.1073 130.532 29.1242C129.665 29.1579 128.905 29.0427 128.252 28.7784C127.604 28.5142 127.1 28.1038 126.739 27.5471C126.379 26.9905 126.202 26.2876 126.208 25.4385V12.8889Z" fill="#635BFF"/>
    <path d="M118.865 28.947V15.9924H122.464V28.947H118.865ZM120.672 14.3226C120.137 14.3226 119.678 14.1454 119.295 13.7911C118.918 13.4313 118.729 13.0012 118.729 12.5008C118.729 12.006 118.918 11.5815 119.295 11.2273C119.678 10.8674 120.137 10.6875 120.672 10.6875C121.208 10.6875 121.663 10.8674 122.041 11.2273C122.424 11.5815 122.616 12.006 122.616 12.5008C122.616 13.0012 122.424 13.4313 122.041 13.7911C121.663 14.1454 121.208 14.3226 120.672 14.3226Z" fill="#635BFF"/>
    <path d="M108.829 28.947V15.9925H112.318V18.2528H112.453C112.69 17.4487 113.087 16.8414 113.644 16.431C114.202 16.0149 114.844 15.8069 115.57 15.8069C115.919 15.8069 116.243 15.849 116.541 15.9335C116.84 16.0178 117.107 16.1331 117.344 16.2793L116.263 19.248C116.094 19.1636 115.908 19.0934 115.705 19.0371C115.508 18.9753 115.286 18.9444 115.038 18.9444C114.554 18.9444 114.114 19.0596 113.72 19.2902C113.326 19.5151 113.013 19.8272 112.782 20.2263C112.551 20.6255 112.433 21.0894 112.428 21.6179V28.947H108.829Z" fill="#635BFF"/>
    <path d="M98.4873 29.1581C97.5018 29.1581 96.6092 28.9051 95.8095 28.399C95.0155 27.8874 94.3848 27.1368 93.9173 26.1471C93.4555 25.152 93.2246 23.9319 93.2246 22.4868C93.2246 21.0024 93.4639 19.7683 93.9426 18.7843C94.4213 17.7947 95.0577 17.0554 95.8517 16.5662C96.6514 16.0714 97.5271 15.824 98.4789 15.824C99.2054 15.824 99.8108 15.9477 100.295 16.1951C100.785 16.4368 101.179 16.7405 101.478 17.106C101.782 17.4658 102.013 17.82 102.17 18.1687H102.28V15.9927H105.87V28.9473H102.322V26.8725H102.17C102.001 27.2323 101.762 27.5894 101.452 27.9436C101.148 28.2922 100.751 28.5818 100.261 28.8123C99.777 29.0429 99.1856 29.1581 98.4873 29.1581ZM99.6277 26.299C100.208 26.299 100.698 26.1416 101.098 25.8266C101.503 25.5061 101.813 25.0592 102.027 24.4857C102.246 23.9122 102.356 23.2403 102.356 22.4699C102.356 21.6997 102.249 21.0306 102.035 20.4627C101.821 19.8948 101.511 19.4563 101.106 19.147C100.701 18.8377 100.208 18.6831 99.6277 18.6831C99.0363 18.6831 98.538 18.8434 98.1325 19.1638C97.7271 19.4843 97.4201 19.9286 97.2118 20.4964C97.0034 21.0643 96.8992 21.7222 96.8992 22.4699C96.8992 23.2234 97.0034 23.8897 97.2118 24.4689C97.4258 25.0423 97.7327 25.4921 98.1325 25.8182C98.538 26.1387 99.0363 26.299 99.6277 26.299Z" fill="#635BFF"/>
    <path d="M78.6508 28.947V11.6743H82.2494V18.1685H82.3592C82.5169 17.8198 82.7449 17.4656 83.0434 17.1058C83.3476 16.7404 83.7417 16.4367 84.226 16.195C84.716 15.9475 85.3242 15.8239 86.0507 15.8239C86.9968 15.8239 87.8698 16.0712 88.6694 16.566C89.4691 17.0552 90.1083 17.7945 90.5869 18.7842C91.0656 19.7681 91.305 21.0023 91.305 22.4867C91.305 23.9316 91.0712 25.1518 90.6038 26.147C90.1421 27.1366 89.5114 27.8872 88.7116 28.3989C87.9176 28.9049 87.0278 29.1579 86.0422 29.1579C85.344 29.1579 84.7498 29.0426 84.2598 28.8121C83.7755 28.5815 83.3785 28.292 83.0688 27.9434C82.759 27.5891 82.5225 27.2322 82.3592 26.8722H82.1987V28.947H78.6508ZM82.1734 22.4698C82.1734 23.24 82.2803 23.912 82.4943 24.4855C82.7084 25.059 83.0181 25.506 83.4236 25.8265C83.829 26.1413 84.3218 26.2988 84.9019 26.2988C85.4875 26.2988 85.9831 26.1386 86.3886 25.8181C86.7941 25.4919 87.1009 25.0422 87.3093 24.4686C87.5234 23.8895 87.6303 23.2232 87.6303 22.4698C87.6303 21.7219 87.5261 21.0642 87.3177 20.4962C87.1095 19.9283 86.8025 19.4842 86.397 19.1637C85.9916 18.8432 85.4931 18.6829 84.9019 18.6829C84.3162 18.6829 83.8206 18.8376 83.4151 19.1468C83.0152 19.4561 82.7084 19.8946 82.4943 20.4625C82.2803 21.0303 82.1734 21.6995 82.1734 22.4698Z" fill="#635BFF"/>
    <path d="M68.2414 29.1581C67.2558 29.1581 66.3632 28.9051 65.5635 28.399C64.7695 27.8874 64.1388 27.1368 63.6713 26.1471C63.2095 25.152 62.9786 23.9319 62.9786 22.4868C62.9786 21.0024 63.2179 19.7683 63.6967 18.7843C64.1754 17.7947 64.8117 17.0554 65.6058 16.5662C66.4055 16.0714 67.2812 15.824 68.2329 15.824C68.9594 15.824 69.5648 15.9477 70.0491 16.1951C70.539 16.4368 70.9333 16.7405 71.2317 17.106C71.5359 17.4658 71.7667 17.82 71.9244 18.1687H72.0342V15.9927H75.6244V28.9473H72.0764V26.8725H71.9244C71.7555 27.2323 71.5161 27.5894 71.2064 27.9436C70.9023 28.2922 70.5052 28.5818 70.0153 28.8123C69.531 29.0429 68.9396 29.1581 68.2414 29.1581ZM69.3817 26.299C69.9618 26.299 70.4517 26.1416 70.8516 25.8266C71.2571 25.5061 71.5668 25.0592 71.7809 24.4857C72.0004 23.9122 72.1103 23.2403 72.1103 22.4699C72.1103 21.6997 72.0033 21.0306 71.7893 20.4627C71.5752 19.8948 71.2655 19.4563 70.86 19.147C70.4546 18.8377 69.9618 18.6831 69.3817 18.6831C68.7905 18.6831 68.292 18.8434 67.8866 19.1638C67.4811 19.4843 67.1742 19.9286 66.9658 20.4964C66.7575 21.0643 66.6533 21.7222 66.6533 22.4699C66.6533 23.2234 66.7575 23.8897 66.9658 24.4689C67.1798 25.0423 67.4867 25.4921 67.8866 25.8182C68.292 26.1387 68.7905 26.299 69.3817 26.299Z" fill="#635BFF"/>
    <path d="M53.3657 29.1831C51.7494 29.1831 50.3274 28.826 49.0998 28.1119C47.8721 27.3922 46.9146 26.3717 46.2276 25.0503C45.5405 23.7234 45.197 22.1491 45.197 20.3274C45.197 18.9273 45.4054 17.6792 45.8222 16.5827C46.2388 15.4806 46.8189 14.5474 47.5623 13.7826C48.3113 13.018 49.1814 12.436 50.1725 12.0367C51.1637 11.6376 52.2281 11.438 53.3657 11.438C54.3456 11.438 55.2607 11.5814 56.111 11.8681C56.967 12.1492 57.7301 12.5484 58.4004 13.0657C59.0705 13.5774 59.6168 14.1903 60.0391 14.9043C60.4671 15.6128 60.7403 16.3971 60.8585 17.2574H57.1585C57.0403 16.847 56.8685 16.4843 56.6433 16.1695C56.4236 15.849 56.1505 15.5791 55.8239 15.3597C55.5029 15.1348 55.1396 14.9633 54.7342 14.8453C54.3343 14.7273 53.8978 14.6682 53.4248 14.6682C52.5463 14.6682 51.7663 14.8875 51.0849 15.326C50.4035 15.7645 49.8685 16.4028 49.4799 17.2405C49.0969 18.0727 48.9054 19.0904 48.9054 20.2937C48.9054 21.4968 49.0885 22.5202 49.4545 23.3636C49.8261 24.207 50.3471 24.8508 51.0173 25.2949C51.6874 25.7335 52.4759 25.9528 53.3825 25.9528C54.2273 25.9528 54.9481 25.8011 55.5451 25.4974C56.1421 25.1882 56.5982 24.7608 56.9136 24.2154C57.2345 23.6644 57.3951 23.0291 57.3951 22.3093L58.0878 22.4527H53.6107V19.7032H61.0022V28.9469H58.5017L58.2905 26.9734H58.1976C57.6175 27.6761 56.9305 28.2215 56.1364 28.6095C55.348 28.9919 54.4243 29.1831 53.3657 29.1831Z" fill="#635BFF"/>
</svg>
